<svg width="31" height="32" viewBox="0 0 31 32" fill="initial" xmlns="http://www.w3.org/2000/svg">
    <g id="products">
        <path d="M25.7915 7.51708C26.9744 7.51708 28.0719 7.98987 28.8846 8.84812C29.6973 9.70636 30.1093 10.8285 30.0466 12.0096L29.2624 26.4649C29.139 28.7244 27.2706 30.496 25.0073 30.496H6.58925C4.32592 30.496 2.45753 28.7263 2.33411 26.4649L1.54992 12.0077C1.48536 10.8266 1.89739 9.70446 2.71196 8.84622C3.52464 7.98797 4.62402 7.51518 5.80506 7.51518H25.7915M25.7915 6.5658H5.80506C2.81639 6.56769 0.441035 9.07597 0.60243 12.0608L1.38662 26.5162C1.53662 29.2808 3.82084 31.4454 6.58925 31.4454H25.0054C27.7738 31.4454 30.058 29.2808 30.208 26.5162L30.9922 12.0608C31.1536 9.07597 28.7783 6.56769 25.7896 6.56769L25.7915 6.5658Z"
              fill="white"/>
        <path d="M20.8167 14.0013C20.8167 16.7735 18.5704 19.0198 15.7982 19.0198C13.026 19.0198 10.7798 16.7735 10.7798 14.0013"
              stroke="white" stroke-width="2" stroke-linecap="round" stroke-linejoin="round" fill="none"/>
        <path d="M10.7798 6.56947C10.7798 3.79727 13.026 1.55103 15.7982 1.55103C18.5704 1.55103 20.8167 3.79727 20.8167 6.56947"
              stroke="white" stroke-width="2" stroke-linecap="round" stroke-linejoin="round" fill="none"/>
    </g>
    <g id="balance">
        <path d="M15.3068 25.264V24.286C15.3068 23.9066 15.0193 23.5908 14.6423 23.5507C13.7538 23.4564 12.8865 23.209 12.2125 22.8743C11.8802 22.7094 11.7317 22.3158 11.8566 21.967L11.9273 21.769C12.0735 21.359 12.5424 21.1563 12.936 21.3425C13.7114 21.7125 14.6611 21.967 15.6627 21.967C17.3595 21.967 18.5049 20.9866 18.5049 19.6268C18.5049 18.267 17.574 17.5011 15.8065 16.7846C13.3696 15.8302 11.8661 14.7296 11.8661 12.6534C11.8661 10.8411 13.0444 9.42706 14.9251 8.92509C15.2479 8.83789 15.4718 8.54566 15.4718 8.21101V7.13636C15.4718 6.7263 15.8041 6.39636 16.2118 6.39636C16.6219 6.39636 16.9518 6.72866 16.9518 7.13636V8.02483C16.9518 8.40426 17.2393 8.7177 17.6164 8.76012C18.3423 8.8426 18.9338 9.017 19.4193 9.22439C19.7845 9.37993 19.9613 9.79706 19.8223 10.1694L19.7516 10.3556C19.6031 10.7468 19.1577 10.9424 18.7735 10.7751C18.2221 10.5371 17.4561 10.3108 16.4522 10.3108C14.614 10.3108 13.9211 11.409 13.9211 12.3659C13.9211 13.6078 14.8049 14.23 16.8835 15.0878C19.3438 16.0918 20.5858 17.3338 20.5858 19.4595C20.5858 21.2011 19.4664 22.839 17.3619 23.4022C17.039 23.4894 16.8128 23.7817 16.8128 24.1163V25.264C16.8128 25.6741 16.4805 26.004 16.0728 26.004H16.0492C15.6391 26.004 15.3092 25.6717 15.3092 25.264H15.3068Z"
              fill="white" />
        <path d="M16.2 31C24.3738 31 31 24.3738 31 16.2C31 8.02621 24.3738 1.40002 16.2 1.40002C8.02618 1.40002 1.39999 8.02621 1.39999 16.2C1.39999 24.3738 8.02618 31 16.2 31Z"
              stroke="white" stroke-width="2" stroke-miterlimit="10" fill="none"/>
    </g>
    <g id="news">
        <path d="M28 4.82121V25.1617C28 27.2386 26.1363 28.9223 23.8395 28.9223H14.3368C14.1835 28.9223 14.0369 28.9756 13.9258 29.0689L7.85503 34.2157C7.3197 34.671 6.44228 34.3312 6.43562 33.667L6.39341 29.4621C6.39119 29.1644 6.12241 28.9245 5.79144 28.9245C3.49017 28.9245 1.62873 27.2408 1.62873 25.1639V4.82343C1.6265 2.74429 3.49017 1.06055 5.78922 1.06055H23.8395C26.1385 1.06055 28 2.74429 28 4.82121Z"
              stroke="white" stroke-width="2" stroke-miterlimit="10"  fill="none"/>
        <path d="M7.28418 15.1124H23.262" stroke="white" stroke-width="2" stroke-miterlimit="10"
              stroke-linecap="round" fill="none"/>
        <path d="M7.28418 19.1375H23.262" stroke="white" stroke-width="2" stroke-miterlimit="10"
              stroke-linecap="round" fill="none"/>
        <path d="M7.28418 23.1647H23.262" stroke="white" stroke-width="2" stroke-miterlimit="10"
              stroke-linecap="round" fill="none"/>
        <path d="M7.07307 5.50088H7.33962C7.46846 5.50088 7.58619 5.56974 7.64838 5.68303L9.54315 9.07051L9.46763 9.1527V5.85406C9.46763 5.65859 9.62534 5.49866 9.82304 5.49866H9.85413C10.0496 5.49866 10.2095 5.65637 10.2095 5.85406V9.7791C10.2095 9.97458 10.0518 10.1345 9.85413 10.1345H9.58091C9.45208 10.1345 9.33435 10.0656 9.27215 9.95458L7.38405 6.61819L7.46179 6.536V9.7791C7.46179 9.97458 7.30408 10.1345 7.10639 10.1345H7.07529C6.87981 10.1345 6.71988 9.9768 6.71988 9.7791V5.85629C6.71988 5.66081 6.87759 5.50088 7.07529 5.50088H7.07307Z"
              fill="white"/>
        <path d="M11.649 5.50085H11.7023C11.8978 5.50085 12.0577 5.65857 12.0577 5.85626V9.78574C12.0577 9.98122 11.9 10.1411 11.7023 10.1411H11.649C11.4535 10.1411 11.2936 9.98344 11.2936 9.78574V5.85626C11.2936 5.66079 11.4513 5.50085 11.649 5.50085ZM11.9644 5.50085H13.9836C14.179 5.50085 14.339 5.65857 14.339 5.85626V5.87625C14.339 6.07173 14.1813 6.23166 13.9836 6.23166H11.9644C11.7689 6.23166 11.609 6.07395 11.609 5.87625V5.85626C11.609 5.66079 11.7667 5.50085 11.9644 5.50085ZM11.9644 7.47337H13.6326C13.8281 7.47337 13.988 7.63108 13.988 7.82878V7.84655C13.988 8.04202 13.8303 8.20195 13.6326 8.20195H11.9644C11.7689 8.20195 11.609 8.04424 11.609 7.84655V7.82878C11.609 7.6333 11.7667 7.47337 11.9644 7.47337ZM11.9644 9.41034H13.9836C14.179 9.41034 14.339 9.56805 14.339 9.76575V9.78796C14.339 9.98344 14.1813 10.1434 13.9836 10.1434H11.9644C11.7689 10.1434 11.609 9.98566 11.609 9.78796V9.76575C11.609 9.57028 11.7667 9.41034 11.9644 9.41034Z"
              fill="white"/>
        <path d="M17.4066 5.50088H17.4399C17.5999 5.50088 17.7398 5.6075 17.782 5.76299L18.2418 7.45118C18.3396 7.81103 18.8549 7.79548 18.9304 7.43119L19.2769 5.7852C19.3125 5.62083 19.4569 5.5031 19.6235 5.5031H19.6746C19.9034 5.5031 20.0722 5.71634 20.0189 5.9407L19.0859 9.87018C19.0482 10.0301 18.906 10.1434 18.7416 10.1434H18.5528C18.3907 10.1434 18.2507 10.0346 18.2085 9.87684L17.7731 8.19754C17.6821 7.84435 17.1823 7.84213 17.0867 8.19309L16.6314 9.87906C16.5892 10.0346 16.4492 10.1412 16.2893 10.1412H16.0983C15.9339 10.1412 15.7917 10.0279 15.754 9.86795L14.821 5.93847C14.7677 5.71634 14.9365 5.50088 15.1653 5.50088H15.2164C15.3852 5.50088 15.5296 5.61861 15.5629 5.78298L15.9095 7.42897C15.9872 7.79326 16.5003 7.80881 16.5981 7.44896L17.0579 5.76077C17.1001 5.6075 17.24 5.49866 17.4 5.49866L17.4066 5.50088Z"
              fill="white"/>
        <path d="M21.4494 10.1212C21.245 10.0768 21.0517 10.0124 20.8718 9.928C20.803 9.89468 20.7363 9.85914 20.6719 9.82137C20.5009 9.71919 20.4587 9.4904 20.5675 9.32602L20.5808 9.30603C20.6875 9.1461 20.8985 9.10834 21.0651 9.20385C21.165 9.26161 21.2717 9.30825 21.3827 9.34824C21.6049 9.42598 21.8403 9.46374 22.0891 9.46374C22.4001 9.46374 22.64 9.40821 22.811 9.29715C22.9821 9.18608 23.0687 9.03059 23.0687 8.82845C23.0687 8.68185 23.0309 8.56856 22.9532 8.48637C22.8777 8.40196 22.7755 8.33977 22.6533 8.302C22.5289 8.26202 22.3712 8.22648 22.1779 8.19094C22.1713 8.19094 22.1646 8.18872 22.158 8.18872C22.1513 8.18872 22.1446 8.18872 22.138 8.1865L22.0802 8.17761C21.7692 8.12652 21.5138 8.06655 21.3139 7.99546C21.1139 7.92438 20.9429 7.79999 20.803 7.62006C20.663 7.44014 20.5919 7.18247 20.5919 6.8515C20.5919 6.55384 20.6586 6.30283 20.7896 6.09625C20.9207 5.88745 21.1139 5.72974 21.365 5.6209C21.616 5.51205 21.9181 5.45874 22.2712 5.45874C22.4378 5.45874 22.6044 5.47651 22.771 5.51427C22.9376 5.55203 23.102 5.60535 23.2619 5.67643C23.3153 5.70086 23.3708 5.72752 23.4219 5.75417C23.5974 5.84747 23.6529 6.07182 23.5529 6.24286L23.5418 6.26285C23.4463 6.42723 23.2375 6.48054 23.0687 6.39391C22.9843 6.34948 22.8999 6.31172 22.8132 6.28284C22.6289 6.2162 22.4467 6.18288 22.2712 6.18288C21.978 6.18288 21.7515 6.2362 21.5893 6.34504C21.4271 6.45388 21.3494 6.60493 21.3494 6.80041C21.3494 6.94923 21.3916 7.06696 21.4738 7.15137C21.556 7.23578 21.6604 7.29798 21.7848 7.33796C21.9092 7.37794 22.0824 7.42015 22.3068 7.46457C22.3157 7.46457 22.3223 7.46902 22.3312 7.46902C22.3379 7.46902 22.3468 7.47124 22.3557 7.47346C22.3668 7.47346 22.3779 7.4779 22.3912 7.48012C22.4045 7.48012 22.4156 7.48457 22.4267 7.48679C22.7133 7.54454 22.9532 7.6134 23.1464 7.69337C23.3397 7.77334 23.4996 7.90439 23.6307 8.0821C23.7595 8.2598 23.8262 8.50414 23.8262 8.8129V8.81957C23.8262 9.10834 23.7573 9.35712 23.6218 9.5637C23.4863 9.77028 23.2886 9.928 23.0287 10.0346C22.7688 10.1412 22.4556 10.1968 22.0913 10.1968C21.867 10.1968 21.6537 10.1746 21.4494 10.1324V10.1212Z"
              fill="white"/>
    </g>
    <g id="support">
        <path d="M1.64429 17.0038C1.64429 8.25466 8.73685 1.16406 17.486 1.16406C26.2351 1.16406 33.3257 8.25466 33.3257 17.0038"
              stroke="white" stroke-width="2" stroke-miterlimit="10" fill="none"/>
        <path d="M32.9932 24.3502C31.2422 29.0936 27.2601 32.877 22.1016 34.207C21.6864 34.3152 21.2634 34.4057 20.8345 34.4804"
              stroke="white" stroke-width="2" stroke-miterlimit="10" fill="none"/>
        <path d="M4.68983 14.3359H6.72808C7.68425 14.3359 8.46138 15.1131 8.46138 16.0692V24.2793C8.46138 25.2355 7.68425 26.0126 6.72808 26.0126H4.68983C3.00768 26.0126 1.64426 24.6472 1.64426 22.967V17.3815C1.64426 15.6994 3.00965 14.3359 4.68983 14.3359Z"
              stroke="white" stroke-width="2" stroke-miterlimit="10" fill="none"/>
        <path d="M15.6917 33.3294L15.5972 32.0742C15.5677 30.9075 16.1422 29.9376 17.2381 29.7468L20.8857 29.9002C22.2078 29.9258 23.0223 30.4452 23.2131 31.5411L23.2958 32.0132C23.4846 33.1091 22.7508 34.1499 21.6549 34.3407L18.0191 34.9703C16.9233 35.1591 15.8825 34.4253 15.6917 33.3294Z"
              stroke="white" stroke-width="2" stroke-miterlimit="10" fill="none"/>
        <path d="M28.2399 14.3359H30.2782C31.9603 14.3359 33.3237 15.7013 33.3237 17.3815V22.967C33.3237 24.6492 31.9584 26.0126 30.2782 26.0126H28.2399C27.2838 26.0126 26.5066 25.2355 26.5066 24.2793V16.0692C26.5066 15.1131 27.2838 14.3359 28.2399 14.3359Z"
              stroke="white" stroke-width="2" stroke-miterlimit="10" fill="none"/>
    </g>
    <g id="settings">
        <path d="M28.9292 21.0399C29.5012 21.6959 29.903 22.4904 29.9802 23.3552C29.9915 23.4891 29.9983 23.6253 29.9983 23.7638C29.9983 26.2675 27.9667 28.2991 25.463 28.2991C25.4131 28.2991 25.3632 28.2991 25.3155 28.2945C24.9886 28.2083 24.6504 28.1561 24.2986 28.147C24.2486 28.1425 24.201 28.1425 24.151 28.1425C22.4191 28.1425 20.9141 29.114 20.1514 30.5418C19.9653 30.8891 19.8223 31.2636 19.7315 31.6586C19.702 31.7879 19.6589 31.9173 19.5908 32.0331C18.8008 33.3633 17.3504 34.2553 15.6911 34.2553C14.1589 34.2553 12.8037 33.4949 11.982 32.3327C11.7482 32.0013 11.5893 31.6222 11.469 31.2341C11.41 31.0457 11.3396 30.8641 11.2602 30.6893C10.5565 29.1594 9.02659 28.0902 7.24244 28.0517C7.20839 28.0494 7.17207 28.0494 7.14029 28.0494C6.84293 28.0494 6.55238 28.0789 6.27091 28.1334C5.4946 28.2855 4.68651 28.2446 3.95787 27.9314C2.3485 27.2368 1.22263 25.6342 1.22263 23.7683C1.22263 23.1645 1.34066 22.5902 1.55403 22.0636C1.71066 21.6777 1.95581 21.335 2.22593 21.0172C2.35985 20.8606 2.4847 20.6926 2.59592 20.5178C3.05218 19.8119 3.31776 18.972 3.31776 18.0686C3.31776 17.1198 3.02494 16.239 2.52783 15.5104C2.45065 15.3969 2.3712 15.2879 2.28268 15.1835C1.96262 14.7954 1.67888 14.3732 1.5041 13.901C1.32931 13.4289 1.22263 12.8796 1.22263 12.3257C1.22263 9.82198 3.2542 7.79041 5.75791 7.79041C5.88957 7.79041 6.02122 7.81084 6.14834 7.84262C6.40711 7.90163 6.67269 7.94022 6.94735 7.95157C7.01999 7.95611 7.09262 7.95838 7.16753 7.95838C9.01524 7.95838 10.6087 6.85293 11.3147 5.26399C11.3374 5.21179 11.3601 5.15504 11.3828 5.10056C11.41 5.00976 11.4418 4.92351 11.4781 4.83498C11.5031 4.77142 11.5212 4.70559 11.5371 4.63977C11.5371 4.63069 11.5417 4.62615 11.5439 4.61707C11.5485 4.60345 11.5553 4.58983 11.5621 4.57621C12.2771 3.00997 13.8547 1.92041 15.6911 1.92041C16.9645 1.92041 18.1176 2.44703 18.9393 3.29144C19.3842 3.74996 19.6906 4.31971 19.9086 4.91897C19.9608 5.06197 20.0198 5.20044 20.0856 5.33663C20.8211 6.84839 22.3737 7.89255 24.1692 7.89255C24.319 7.89255 24.4665 7.88574 24.6118 7.86985C24.689 7.86304 24.7639 7.85397 24.8411 7.84262C24.9637 7.82446 25.0862 7.80403 25.2088 7.79722C25.2315 7.79722 25.2519 7.79495 25.2746 7.79495C27.4288 7.70642 29.3923 9.14555 29.8757 11.2452C30.0142 11.8445 30.0324 12.4278 29.9529 12.9794C29.8394 13.7671 29.4558 14.4867 28.9315 15.0859C28.7589 15.2857 28.6001 15.499 28.4639 15.726C28.053 16.4093 27.8147 17.2105 27.8147 18.0663C27.8147 18.9221 28.0348 19.6643 28.4207 20.3317C28.566 20.5859 28.7362 20.8243 28.9292 21.0444V21.0399Z"
              stroke="white" stroke-width="2" stroke-linecap="round" stroke-linejoin="round" fill="none"/>
        <path d="M15.6116 23.8204C18.7783 23.8204 21.3454 21.2533 21.3454 18.0866C21.3454 14.92 18.7783 12.3528 15.6116 12.3528C12.4449 12.3528 9.87784 14.92 9.87784 18.0866C9.87784 21.2533 12.4449 23.8204 15.6116 23.8204Z"
              stroke="white" stroke-width="2" stroke-linecap="round" stroke-linejoin="round" fill="none"/>
    </g>
</svg>